<svg id="Layer_1" data-name="Layer 1" xmlns="http://www.w3.org/2000/svg" viewBox="0 0 174 174"><defs><style>.cls-1{fill:#7ab657;}.cls-2{fill:#fff;}</style></defs><title>Instant delivery</title><rect class="cls-1" width="174" height="174" rx="87"/><path class="cls-2" d="M728.44,359.58a1.89,1.89,0,0,0-1.43-.67H658.27l-.74-3.83a5,5,0,0,0-5.08-4.08h-5.16a1.86,1.86,0,0,0,0,3.71h5.16a1.34,1.34,0,0,1,1.44,1.08l8.36,43.09a11.33,11.33,0,0,0,1.9,4.48l-2.58,2.2a7,7,0,0,0-3.91-1.14,9.2,9.2,0,0,0-8.81,7.47,7,7,0,0,0,1.43,5.74,6.74,6.74,0,0,0,5.28,2.37,9.2,9.2,0,0,0,8.81-7.47,7.21,7.21,0,0,0-.43-4.11L666.8,406a12.16,12.16,0,0,0,7,2.14h30.09a8.85,8.85,0,0,0-1.65,3.76,7,7,0,0,0,1.43,5.74A6.74,6.74,0,0,0,709,420a9.2,9.2,0,0,0,8.81-7.47,7,7,0,0,0-1.43-5.74,6.74,6.74,0,0,0-5.28-2.37H673.83a7.68,7.68,0,0,1-7.94-6.25l-.37-1.91h47.65a11.64,11.64,0,0,0,11.14-9.45l4.53-25.72a1.83,1.83,0,0,0-.4-1.51Zm-14.92,49.59a3.31,3.31,0,0,1,.62,2.72,5.55,5.55,0,0,1-5.16,4.4,3.12,3.12,0,0,1-2.44-1,3.32,3.32,0,0,1-.62-2.72,5.54,5.54,0,0,1,5.16-4.4A3.12,3.12,0,0,1,713.52,409.17Zm-52.8,2.72a5.55,5.55,0,0,1-5.16,4.4,3.12,3.12,0,0,1-2.44-1,3.32,3.32,0,0,1-.62-2.72,5.54,5.54,0,0,1,5.16-4.4,3.1,3.1,0,0,1,2.44,1A3.24,3.24,0,0,1,660.72,411.89Zm59.93-25.72a8,8,0,0,1-7.48,6.38H664.8L659,362.62H724.8l-4.15,23.55Z" transform="translate(-596.5 -297)"/><path class="cls-2" d="M694.46,388.32a1.77,1.77,0,0,0,.32,0,1.85,1.85,0,0,0,1.83-1.53L699.75,369a1.86,1.86,0,0,0-3.66-.64L693,386.17a1.87,1.87,0,0,0,1.51,2.15Z" transform="translate(-596.5 -297)"/><path class="cls-2" d="M702.37,388.32a1.83,1.83,0,0,0,.33,0,1.85,1.85,0,0,0,1.82-1.53L707.66,369a1.85,1.85,0,0,0-3.65-.64l-3.14,17.81a1.85,1.85,0,0,0,1.5,2.15Z" transform="translate(-596.5 -297)"/><path class="cls-2" d="M710.29,388.32a1.72,1.72,0,0,0,.32,0,1.86,1.86,0,0,0,1.83-1.53L715.57,369a1.85,1.85,0,0,0-3.65-.64l-3.14,17.81a1.86,1.86,0,0,0,1.51,2.15Z" transform="translate(-596.5 -297)"/><path class="cls-2" d="M670.72,388.32a1.72,1.72,0,0,0,.32,0,1.86,1.86,0,0,0,1.83-1.53L676,369a1.86,1.86,0,0,0-3.66-.64l-3.14,17.81A1.86,1.86,0,0,0,670.72,388.32Z" transform="translate(-596.5 -297)"/><path class="cls-2" d="M678.63,388.32a1.77,1.77,0,0,0,.32,0,1.85,1.85,0,0,0,1.83-1.53L683.92,369a1.85,1.85,0,0,0-3.65-.64l-3.14,17.81a1.85,1.85,0,0,0,1.5,2.15Z" transform="translate(-596.5 -297)"/><path class="cls-2" d="M686.54,388.32a1.83,1.83,0,0,0,.33,0,1.85,1.85,0,0,0,1.82-1.53L691.83,369a1.85,1.85,0,0,0-3.65-.64L685,386.17a1.86,1.86,0,0,0,1.5,2.15Z" transform="translate(-596.5 -297)"/><path class="cls-2" d="M651.71,374.62a1.86,1.86,0,0,0-1.86-1.86h-27.7a1.86,1.86,0,0,0,0,3.71h27.7A1.85,1.85,0,0,0,651.71,374.62Z" transform="translate(-596.5 -297)"/><path class="cls-2" d="M655.67,398.36a1.86,1.86,0,0,0-1.86-1.85H634a1.85,1.85,0,1,0,0,3.7h19.78A1.86,1.86,0,0,0,655.67,398.36Z" transform="translate(-596.5 -297)"/><path class="cls-2" d="M653.69,386.49a1.86,1.86,0,0,0-1.86-1.86H628.09a1.86,1.86,0,0,0,0,3.71h23.74A1.85,1.85,0,0,0,653.69,386.49Z" transform="translate(-596.5 -297)"/><path class="cls-2" d="M649.73,362.75a1.85,1.85,0,0,0-1.85-1.86H616.22a1.86,1.86,0,1,0,0,3.71h31.66A1.85,1.85,0,0,0,649.73,362.75Z" transform="translate(-596.5 -297)"/></svg>