<svg id="Layer_1" data-name="Layer 1" xmlns="http://www.w3.org/2000/svg" viewBox="0 0 174 174"><defs><style>.cls-1{fill:#336ab2;}.cls-2{fill:#fff;}</style></defs><title>secure payment</title><rect class="cls-1" width="174" height="174" rx="87"/><path class="cls-2" d="M718.36,357.5h-75a6.87,6.87,0,0,0-6.86,6.86v44.45a6.86,6.86,0,0,0,6.86,6.85h30.56a1.3,1.3,0,1,0,0-2.6H643.36a4.26,4.26,0,0,1-4.26-4.25V364.36a4.26,4.26,0,0,1,4.26-4.26h75a4.26,4.26,0,0,1,4.26,4.26v44.45a1.3,1.3,0,0,0,2.6,0V364.36A6.86,6.86,0,0,0,718.36,357.5Z" transform="translate(-596.5 -297)"/><path class="cls-2" d="M647.53,405.94h26.39a1.3,1.3,0,1,0,0-2.6H647.53a1.3,1.3,0,1,0,0,2.6Z" transform="translate(-596.5 -297)"/><path class="cls-2" d="M662.72,379.64v-5.56a4.08,4.08,0,0,0-4.08-4.08H650.3a4.08,4.08,0,0,0-4.08,4.08v5.56a4.08,4.08,0,0,0,4.08,4.08h8.34A4.08,4.08,0,0,0,662.72,379.64Zm-13.89,0v-1.48h1.47a1.3,1.3,0,1,0,0-2.6h-1.47v-1.48a1.47,1.47,0,0,1,1.47-1.47h2.87v8.5H650.3A1.47,1.47,0,0,1,648.83,379.64Zm9.81,1.47h-2.87v-8.5h2.87a1.47,1.47,0,0,1,1.47,1.47v1.48h-1.47a1.3,1.3,0,1,0,0,2.6h1.47v1.48A1.47,1.47,0,0,1,658.64,381.11Z" transform="translate(-596.5 -297)"/><path class="cls-2" d="M646.22,396.31a1.31,1.31,0,0,0,2.61,0v-2.78a1.31,1.31,0,0,0-2.61,0Z" transform="translate(-596.5 -297)"/><path class="cls-2" d="M650.39,393.53v2.78a1.3,1.3,0,1,0,2.6,0v-2.78a1.3,1.3,0,0,0-2.6,0Z" transform="translate(-596.5 -297)"/><path class="cls-2" d="M654.56,393.53v2.78a1.3,1.3,0,1,0,2.6,0v-2.78a1.3,1.3,0,0,0-2.6,0Z" transform="translate(-596.5 -297)"/><path class="cls-2" d="M658.72,393.53v2.78a1.31,1.31,0,0,0,2.61,0v-2.78a1.31,1.31,0,0,0-2.61,0Z" transform="translate(-596.5 -297)"/><path class="cls-2" d="M666.88,396.31v-2.78a1.3,1.3,0,0,0-2.6,0v2.78a1.3,1.3,0,1,0,2.6,0Z" transform="translate(-596.5 -297)"/><path class="cls-2" d="M671.05,396.31v-2.78a1.3,1.3,0,0,0-2.6,0v2.78a1.3,1.3,0,0,0,2.6,0Z" transform="translate(-596.5 -297)"/><path class="cls-2" d="M673.92,392.23a1.31,1.31,0,0,0-1.31,1.3v2.78a1.31,1.31,0,0,0,2.61,0v-2.78A1.3,1.3,0,0,0,673.92,392.23Z" transform="translate(-596.5 -297)"/><path class="cls-2" d="M679.39,396.31v-2.78a1.31,1.31,0,0,0-2.61,0v2.78a1.31,1.31,0,0,0,2.61,0Z" transform="translate(-596.5 -297)"/><path class="cls-2" d="M708.64,383.72a6.86,6.86,0,0,0,0-13.72h-8.33a6.86,6.86,0,1,0,0,13.72Zm-12.59-6.86a4.25,4.25,0,0,1,4.26-4.25h8.33a4.25,4.25,0,1,1,0,8.5h-8.33A4.26,4.26,0,0,1,696.05,376.86Z" transform="translate(-596.5 -297)"/><path class="cls-2" d="M718.76,400.38a1.3,1.3,0,0,0-1-.21A16.66,16.66,0,0,1,700,392.7a1.3,1.3,0,0,0-2.2,0,16.66,16.66,0,0,1-17.73,7.47,1.29,1.29,0,0,0-1,.21,1.27,1.27,0,0,0-.55.88,32.12,32.12,0,0,0-.36,4.77c0,13.65,8.55,26.43,20.33,30.4a1.23,1.23,0,0,0,.42.07,1.14,1.14,0,0,0,.41-.07c11.79-4,20.34-16.75,20.34-30.4a32.12,32.12,0,0,0-.36-4.77A1.27,1.27,0,0,0,718.76,400.38ZM686,423.31A31.63,31.63,0,0,1,680.77,406a28.82,28.82,0,0,1,.17-3.06,19,19,0,0,0,2.7.19,19.23,19.23,0,0,0,14-6V433.3A27,27,0,0,1,686,423.31Zm25.78,0a27,27,0,0,1-11.59,10V397.18a19.23,19.23,0,0,0,14,6,19,19,0,0,0,2.7-.19,28.78,28.78,0,0,1,.16,3.06A31.62,31.62,0,0,1,711.81,423.31Z" transform="translate(-596.5 -297)"/></svg>