<svg id="Layer_1" data-name="Layer 1" xmlns="http://www.w3.org/2000/svg" viewBox="0 0 174 174"><defs><style>.cls-1{fill:#f15d43;}.cls-2{fill:#fff;}</style></defs><title>Unbeatable Price</title><rect class="cls-1" width="174" height="174" rx="87"/><path class="cls-2" d="M960.54,304.12c-3.59,0-6.6,2.21-8.51,4.9-1.92-2.69-4.93-4.9-8.52-4.9-5.72,0-10.29,4.52-10.89,10.75A11,11,0,0,0,933,319a17,17,0,0,0,5.44,8.8l12.47,10.87a1.79,1.79,0,0,0,1.16.44,1.76,1.76,0,0,0,1.15-.44l12.48-10.87A17.1,17.1,0,0,0,971.1,319a10.89,10.89,0,0,0,.33-4.14C970.84,308.64,966.26,304.12,960.54,304.12Zm7.65,14.15a14.1,14.1,0,0,1-4.48,7.22L952,335.66l-11.68-10.17a14,14,0,0,1-4.48-7.22,7.94,7.94,0,0,1-.29-2.89l0-.16c.37-4,3.2-8.05,7.91-8.05,3.28,0,6,2.76,7.15,5.5l1.37,3.14,1.37-3.14c1.19-2.74,3.86-5.5,7.14-5.5,4.72,0,7.55,4.05,7.94,8.19A8.34,8.34,0,0,1,968.19,318.27Z" transform="translate(-845 -221)"/><path class="cls-2" d="M957.94,285.73a5.9,5.9,0,1,0-5.89,6A6,6,0,0,0,957.94,285.73Zm-8.79,0a2.9,2.9,0,1,1,2.9,2.95A2.93,2.93,0,0,1,949.15,285.73Z" transform="translate(-845 -221)"/><path class="cls-2" d="M956.35,266h-21l-37.9,38.45h0l-9,9.13L926.14,352l11.55-11.26-36-36.28,34.88-35.41h18.5L970,284.17v19.67h3V282.91Zm-23,74.7-7.22,7L892.72,313.6l6.89-7Z" transform="translate(-845 -221)"/></svg>